<mxfile host="app.diagrams.net" modified="2020-12-17T12:02:03.781Z" agent="5.0 (Windows NT 10.0; Win64; x64) AppleWebKit/537.36 (KHTML, like Gecko) Chrome/87.0.4280.88 Safari/537.36" etag="LtOo6BzYL8s5CWV_v6aJ" version="14.0.4" type="github">
  <diagram id="R2lEEEUBdFMjLlhIrx00" name="Page-1">
    <mxGraphModel dx="981" dy="548" grid="1" gridSize="10" guides="1" tooltips="1" connect="1" arrows="1" fold="1" page="1" pageScale="1" pageWidth="850" pageHeight="1100" math="0" shadow="0" extFonts="Permanent Marker^https://fonts.googleapis.com/css?family=Permanent+Marker">
      <root>
        <mxCell id="0" />
        <mxCell id="1" parent="0" />
        <mxCell id="E2jrp3708x2jS2G416op-21" style="edgeStyle=orthogonalEdgeStyle;rounded=0;orthogonalLoop=1;jettySize=auto;html=1;entryX=1;entryY=0.5;entryDx=0;entryDy=0;" edge="1" parent="1" source="E2jrp3708x2jS2G416op-2" target="E2jrp3708x2jS2G416op-4">
          <mxGeometry relative="1" as="geometry" />
        </mxCell>
        <mxCell id="E2jrp3708x2jS2G416op-22" style="edgeStyle=orthogonalEdgeStyle;rounded=0;orthogonalLoop=1;jettySize=auto;html=1;entryX=1;entryY=0.5;entryDx=0;entryDy=0;" edge="1" parent="1" source="E2jrp3708x2jS2G416op-2" target="E2jrp3708x2jS2G416op-11">
          <mxGeometry relative="1" as="geometry">
            <mxPoint x="102" y="195" as="targetPoint" />
            <Array as="points" />
          </mxGeometry>
        </mxCell>
        <mxCell id="E2jrp3708x2jS2G416op-23" style="edgeStyle=orthogonalEdgeStyle;rounded=0;orthogonalLoop=1;jettySize=auto;html=1;entryX=1;entryY=0.5;entryDx=0;entryDy=0;" edge="1" parent="1" source="E2jrp3708x2jS2G416op-2" target="E2jrp3708x2jS2G416op-13">
          <mxGeometry relative="1" as="geometry" />
        </mxCell>
        <mxCell id="E2jrp3708x2jS2G416op-25" style="edgeStyle=orthogonalEdgeStyle;rounded=0;orthogonalLoop=1;jettySize=auto;html=1;entryX=0;entryY=0.5;entryDx=0;entryDy=0;" edge="1" parent="1" source="E2jrp3708x2jS2G416op-2" target="E2jrp3708x2jS2G416op-24">
          <mxGeometry relative="1" as="geometry" />
        </mxCell>
        <mxCell id="E2jrp3708x2jS2G416op-2" value="Termék&lt;br&gt;" style="whiteSpace=wrap;html=1;align=center;" vertex="1" parent="1">
          <mxGeometry x="160" y="170" width="70" height="40" as="geometry" />
        </mxCell>
        <mxCell id="E2jrp3708x2jS2G416op-18" value="" style="edgeStyle=orthogonalEdgeStyle;rounded=0;orthogonalLoop=1;jettySize=auto;html=1;entryX=0;entryY=0.667;entryDx=0;entryDy=0;entryPerimeter=0;" edge="1" parent="1" source="E2jrp3708x2jS2G416op-3" target="E2jrp3708x2jS2G416op-15">
          <mxGeometry relative="1" as="geometry" />
        </mxCell>
        <mxCell id="E2jrp3708x2jS2G416op-19" style="edgeStyle=orthogonalEdgeStyle;rounded=0;orthogonalLoop=1;jettySize=auto;html=1;entryX=0.02;entryY=0.633;entryDx=0;entryDy=0;entryPerimeter=0;" edge="1" parent="1" source="E2jrp3708x2jS2G416op-3" target="E2jrp3708x2jS2G416op-16">
          <mxGeometry relative="1" as="geometry" />
        </mxCell>
        <mxCell id="E2jrp3708x2jS2G416op-20" style="edgeStyle=orthogonalEdgeStyle;rounded=0;orthogonalLoop=1;jettySize=auto;html=1;entryX=0;entryY=0.5;entryDx=0;entryDy=0;" edge="1" parent="1" source="E2jrp3708x2jS2G416op-3" target="E2jrp3708x2jS2G416op-17">
          <mxGeometry relative="1" as="geometry" />
        </mxCell>
        <mxCell id="E2jrp3708x2jS2G416op-3" value="Vásárlók" style="whiteSpace=wrap;html=1;align=center;" vertex="1" parent="1">
          <mxGeometry x="410" y="170" width="70" height="40" as="geometry" />
        </mxCell>
        <mxCell id="E2jrp3708x2jS2G416op-4" value="Ár" style="ellipse;whiteSpace=wrap;html=1;align=center;" vertex="1" parent="1">
          <mxGeometry x="20" y="120" width="80" height="30" as="geometry" />
        </mxCell>
        <mxCell id="E2jrp3708x2jS2G416op-11" value="Leírás" style="ellipse;whiteSpace=wrap;html=1;align=center;" vertex="1" parent="1">
          <mxGeometry x="20" y="170" width="80" height="30" as="geometry" />
        </mxCell>
        <mxCell id="E2jrp3708x2jS2G416op-13" value="Kategória" style="ellipse;whiteSpace=wrap;html=1;align=center;" vertex="1" parent="1">
          <mxGeometry x="20" y="230" width="80" height="30" as="geometry" />
        </mxCell>
        <mxCell id="E2jrp3708x2jS2G416op-31" style="edgeStyle=orthogonalEdgeStyle;rounded=0;orthogonalLoop=1;jettySize=auto;html=1;entryX=0.5;entryY=1;entryDx=0;entryDy=0;" edge="1" parent="1" source="E2jrp3708x2jS2G416op-15" target="E2jrp3708x2jS2G416op-27">
          <mxGeometry relative="1" as="geometry" />
        </mxCell>
        <mxCell id="E2jrp3708x2jS2G416op-32" style="edgeStyle=orthogonalEdgeStyle;rounded=0;orthogonalLoop=1;jettySize=auto;html=1;entryX=0.61;entryY=1.076;entryDx=0;entryDy=0;entryPerimeter=0;" edge="1" parent="1" source="E2jrp3708x2jS2G416op-15" target="E2jrp3708x2jS2G416op-28">
          <mxGeometry relative="1" as="geometry" />
        </mxCell>
        <mxCell id="E2jrp3708x2jS2G416op-15" value="Név" style="ellipse;whiteSpace=wrap;html=1;align=center;" vertex="1" parent="1">
          <mxGeometry x="530" y="100" width="80" height="30" as="geometry" />
        </mxCell>
        <mxCell id="E2jrp3708x2jS2G416op-16" value="Cím" style="ellipse;whiteSpace=wrap;html=1;align=center;" vertex="1" parent="1">
          <mxGeometry x="530" y="185" width="80" height="30" as="geometry" />
        </mxCell>
        <mxCell id="E2jrp3708x2jS2G416op-17" value="Email" style="ellipse;whiteSpace=wrap;html=1;align=center;" vertex="1" parent="1">
          <mxGeometry x="530" y="280" width="80" height="30" as="geometry" />
        </mxCell>
        <mxCell id="E2jrp3708x2jS2G416op-26" style="edgeStyle=orthogonalEdgeStyle;rounded=0;orthogonalLoop=1;jettySize=auto;html=1;entryX=0;entryY=0.5;entryDx=0;entryDy=0;" edge="1" parent="1" source="E2jrp3708x2jS2G416op-24" target="E2jrp3708x2jS2G416op-3">
          <mxGeometry relative="1" as="geometry" />
        </mxCell>
        <mxCell id="E2jrp3708x2jS2G416op-24" value="Vásárlás" style="shape=rhombus;double=1;perimeter=rhombusPerimeter;whiteSpace=wrap;html=1;align=center;" vertex="1" parent="1">
          <mxGeometry x="270" y="165" width="100" height="50" as="geometry" />
        </mxCell>
        <mxCell id="E2jrp3708x2jS2G416op-27" value="&lt;span style=&quot;border-bottom: 1px dotted&quot;&gt;Vezetéknév&lt;/span&gt;" style="ellipse;whiteSpace=wrap;html=1;align=center;" vertex="1" parent="1">
          <mxGeometry x="630" y="30" width="70" height="30" as="geometry" />
        </mxCell>
        <mxCell id="E2jrp3708x2jS2G416op-28" value="&lt;span style=&quot;border-bottom: 1px dotted&quot;&gt;Keresztnév&lt;/span&gt;" style="ellipse;whiteSpace=wrap;html=1;align=center;" vertex="1" parent="1">
          <mxGeometry x="730" y="30" width="70" height="30" as="geometry" />
        </mxCell>
        <mxCell id="E2jrp3708x2jS2G416op-30" style="edgeStyle=orthogonalEdgeStyle;rounded=0;orthogonalLoop=1;jettySize=auto;html=1;" edge="1" parent="1" source="E2jrp3708x2jS2G416op-29" target="E2jrp3708x2jS2G416op-15">
          <mxGeometry relative="1" as="geometry" />
        </mxCell>
        <mxCell id="E2jrp3708x2jS2G416op-29" value="&lt;span style=&quot;border-bottom: 1px dotted&quot;&gt;Előtag&lt;/span&gt;" style="ellipse;whiteSpace=wrap;html=1;align=center;" vertex="1" parent="1">
          <mxGeometry x="535" y="30" width="70" height="30" as="geometry" />
        </mxCell>
      </root>
    </mxGraphModel>
  </diagram>
</mxfile>
